<?xml version="1.0" encoding="UTF-8"?>
<svg width="70px" height="70px" viewBox="0 0 63 63" version="1.1" xmlns="http://www.w3.org/2000/svg" xmlns:xlink="http://www.w3.org/1999/xlink">
    <!-- Generator: Sketch 62 (91390) - https://sketch.com -->
    <title>Group 14</title>
    <desc>Created with Sketch.</desc>
    <defs>
        <path d="M31.5,0 C48.8969696,-3.19577147e-15 63,14.1030304 63,31.5 C63,48.8969696 48.8969696,63 31.5,63 C14.1030304,63 2.13051432e-15,48.8969696 0,31.5 C-2.13051432e-15,14.1030304 14.1030304,3.19577147e-15 31.5,0 Z" id="path-1"></path>
    </defs>
    <g id="Page-1" stroke="none" stroke-width="1" fill="none" fill-rule="evenodd">
        <g id="icn_step1" transform="translate(-7.000000, -25.000000)">
            <g id="Group-5" transform="translate(7.000000, 18.000000)">
                <g id="Group-14" transform="translate(0.000000, 7.000000)">
                    <mask id="mask-2" fill="white">
                        <use xlink:href="#path-1"></use>
                    </mask>
                    <use id="Combined-Shape" fill="#85C3D4" xlink:href="#path-1"></use>
                    <path d="M45,27 L45,42 C45,43.1045695 44.1045695,44 43,44 L19,44 C17.8954305,44 17,43.1045695 17,42 L17,27 L45,27 Z M28.0824766,30 C27.2089808,30 26.3606819,30.3732504 25.797949,31.0304956 C24.2609323,32.8074921 25.1428271,35.1037934 26.7638338,36.6373656 C28.2588556,38.0573399 29.6530893,39.0634931 30.8457471,40.4347826 L35.0872413,36.7996484 C36.767041,35.3309892 37.7497238,33.0752586 36.2882981,31.2333491 C35.7255652,30.527419 34.8436703,30.1054838 33.9281795,30.1054838 C32.8447087,30.1054838 31.7108439,30.6897018 31.022126,32.0691054 C30.3670042,30.6247887 29.1995434,30 28.0824766,30 Z M38.5,17 C39.3284271,17 40,17.6715729 40,18.5 L40,20 L43,20 C44.1045695,20 45,20.8954305 45,22 L45,25 L17,25 L17,22 C17,20.8954305 17.8954305,20 19,20 L22,20 L22,18.5 C22,17.6715729 22.6715729,17 23.5,17 C24.3284271,17 25,17.6715729 25,18.5 L25,20 L37,20 L37,18.5 C37,17.6715729 37.6715729,17 38.5,17 Z" id="Combined-Shape" fill="#FFFFFF" mask="url(#mask-2)"></path>
                </g>
            </g>
        </g>
    </g>
</svg>