<?xml version="1.0" encoding="UTF-8"?>
<svg width="221px" height="218px" viewBox="0 0 221 218" version="1.1" xmlns="http://www.w3.org/2000/svg" xmlns:xlink="http://www.w3.org/1999/xlink">
    <!-- Generator: Sketch 62 (91390) - https://sketch.com -->
    <title>rocket</title>
    <desc>Created with Sketch.</desc>
    <defs>
        <circle id="path-1" cx="103" cy="103" r="103"></circle>
        <path d="M34.168255,164.585116 C53.0388612,164.585116 68.33651,127.741483 68.33651,82.2925579 C68.33651,51.9932747 56.9470917,24.5624221 34.168255,0 C11.3894183,24.5624221 0,51.9932747 0,82.2925579 C0,127.741483 15.2976488,164.585116 34.168255,164.585116 Z" id="path-3"></path>
        <path d="M23.2831894,1.5770743 C22.7365177,1.33086239 22.4021684,1.57795844 22.1323866,2.03905696 C17.059047,10.7061885 11.5593819,19.1548523 8.37796336,28.7990127 C7.91566669,30.2002821 7.46996214,31.7262456 8.89298547,32.9668469 C10.1757592,32.6058353 11.2905095,33.1745119 12.3789637,33.6942386 C15.0766276,34.9822056 17.3801088,36.8544714 19.5339942,38.8871395 C23.4297965,42.563956 27.2475187,46.3232554 31.1137193,50.0316749 C32.0253447,50.906339 32.958275,51.7717055 34.1485812,52.2772337 C35.3993859,52.1815335 35.4487387,51.2468407 35.4604693,50.3313588 C35.5071491,46.713701 35.4457421,43.0952635 35.4495446,39.4768563 C35.4563546,32.8067822 35.2041292,26.1387866 35.1162171,19.4689769 C35.0568627,14.9615459 34.1518473,10.5861405 31.0372679,6.9962306 C29.3485278,5.04995355 27.1645782,3.76658837 24.9574419,2.5244208 C24.4275374,2.22622014 23.8578019,1.99946983 23.3362043,1.68175558 L23.2831894,1.5770743" id="path-5"></path>
        <path d="M49.4526814,12.4168328 C50.0133348,12.62929 50.0750322,13.0404339 49.9397508,13.5572444 C47.3985561,23.2732247 45.3132991,33.1361826 40.7434505,42.2052365 C40.0794966,43.5229767 39.3156382,44.9171565 37.4321711,44.7881646 C36.7803868,43.6258329 35.5900243,43.2397005 34.4528687,42.8375494 C31.634602,41.8407432 28.681903,41.5358278 25.7215626,41.4501143 C20.3669125,41.2952679 15.0091492,41.2539568 9.653084,41.1423887 C8.38998656,41.1162531 7.11839867,41.0684783 5.91926269,40.5842671 C5.10248044,39.6321443 5.72851036,38.936319 6.36755898,38.2806808 C8.8926218,35.6896028 11.4946648,33.1744024 14.0505763,30.6131134 C18.7622156,25.8918434 23.6555507,21.3552087 28.4339816,16.7011044 C31.6631866,13.5558392 35.3970079,11.1019029 40.1377977,10.7657935 C42.708143,10.5836873 45.1599048,11.2204967 47.598931,11.9028327 C48.1844897,12.066672 48.7476902,12.3091991 49.3411734,12.4533665 L49.4526814,12.4168328" id="path-7"></path>
    </defs>
    <g id="rocket" stroke="none" stroke-width="1" fill="none" fill-rule="evenodd">
        <g id="Oval-57-+-Bitmap-+-Imported-Layers" transform="translate(0.000000, 12.000000)">
            <g id="Oval-57-+-Bitmap">
                <mask id="mask-2" fill="white">
                    <use xlink:href="#path-1"></use>
                </mask>
                <use id="Mask" fill="#DEECEC" xlink:href="#path-1"></use>
                <path d="M48.6050152,69.6114546 C45.591311,31.6578228 -4.3849135,19.1518657 -24.8114566,51.6511688 C-38.0607697,44.1601181 -54.9580199,52.9734636 -56.0166613,68.4583374 C-70.542496,70.2372651 -81.7950012,82.6080999 -81.7950012,97.615102 C-81.7950012,113.843698 -68.6386991,127 -52.4101032,127 L39.6884055,127 C55.9170014,127 69.0733035,113.843698 69.0733035,97.615102 C69.0733035,84.4954185 60.4738101,73.3875564 48.6050152,69.6114546 L48.6050152,69.6114546 Z" id="cloud-icon" fill="#FFFFFF" opacity="0.631180037" mask="url(#mask-2)"></path>
                <path d="M224.947734,139.165575 C223.123155,116.187409 192.866183,108.615961 180.499395,128.291927 C172.477899,123.756641 162.247842,129.092481 161.606912,138.467447 C152.812574,139.544458 146,147.0341 146,156.119749 C146,165.944984 153.965185,173.910169 163.79042,173.910169 L219.549375,173.910169 C229.37461,173.910169 237.339795,165.944984 237.339795,156.119749 C237.339795,148.176734 232.133427,141.451731 224.947734,139.165575 L224.947734,139.165575 Z" id="cloud-icon-copy" fill="#FFFFFF" opacity="0.631180037" mask="url(#mask-2)"></path>
                <g id="Imported-Layers" mask="url(#mask-2)">
                    <g transform="translate(-29.000000, 128.000000)">
                        <path d="M127.779,32.74 C127.744,28.597 127.666,24.455 127.694,20.313 C127.708,18.403 127.582,16.648 125.632,15.651 C124.924,14.044 122.974,12.442 125.614,10.822 C129.267,11.177 131.128,9.841 130.555,5.874 C130.35,4.457 130.238,2.872 131.161,1.604 C133.095,-1.05 133.205,1.325 133.698,2.578 C134.596,4.788 133.859,7.106 134.149,9.35 C134.462,11.779 135.537,12.624 137.669,10.825 C138.657,10.829 139.645,10.834 140.633,10.838 C142.231,14.035 138.718,14.198 137.672,15.826 C137.379,16.148 137.086,16.469 136.793,16.791 C136.371,17.093 135.998,17.447 135.677,17.855 C134.459,21.001 135.241,24.281 135.026,27.493 C134.908,29.265 135.129,31.086 134.085,32.694 C133.7,33.134 133.235,33.45 132.69,33.66 C130.911,34.103 129.198,34.198 127.779,32.74" id="Fill-2" fill="#919394"></path>
                        <path d="M125.614,10.822 C124.563,12.436 125.959,14.041 125.632,15.652 C124.625,15.089 123.618,14.528 122.612,13.968 C121.239,13.192 119.867,12.414 118.494,11.636 C118.547,11.365 118.6,11.093 118.653,10.822 L125.614,10.822" id="Fill-3" fill="#889B9D"></path>
                        <path d="M137.669,10.825 C138.484,12.296 137.704,13.032 136.37,13.12 C134.919,13.215 133.782,12.432 133.723,10.882 C133.618,8.118 133.696,5.348 133.698,2.579 C134.992,3.718 134.437,5.31 134.707,6.701 C134.304,9.074 134.624,10.928 137.669,10.825" id="Fill-4" fill="#8D979B"></path>
                        <path d="M155.583,48.747 C155.646,49.663 155.709,50.579 155.772,51.495 C155.03,52.641 155.321,53.866 155.493,55.086 C154.843,55.557 154.108,55.751 153.316,55.777 C150.076,55.577 147.776,54.078 146.643,50.962 C146.025,49.612 145.488,48.204 145.361,46.734 C145.022,42.827 143.183,40.92 139.058,40.858 C136.001,40.813 133.914,38.911 133.193,35.781 C133.186,35.208 133.388,34.726 133.796,34.325 C135.183,33.484 136.45,33.934 137.689,34.68 C142.332,35.193 147.264,33.422 151.47,37.243 C154.407,39.912 156.342,42.62 155.51,46.714 C154.987,47.129 155.591,46.566 155.185,47.072 C154.621,47.775 153.39,47.728 153.247,48.855 C154.025,48.802 154.783,48.319 155.583,48.747" id="Fill-9" fill="#5FA06A"></path>
                        <path d="M137.672,15.826 C138.225,13.905 140.684,13.115 140.633,10.837 C143.007,10.838 145.381,10.838 149.034,10.838 C145.113,14.384 140.912,14.048 137.672,15.826" id="Fill-10" fill="#8D979B"></path>
                        <path d="M137.689,34.68 C136.326,34.688 134.963,34.697 133.599,34.706 C133.182,35.017 132.772,35.023 132.372,34.674 C132.029,33.972 132.059,33.317 132.617,32.729 C132.962,32.717 133.307,32.705 133.652,32.693 C135.456,30.125 134.32,27.203 134.641,24.457 C134.943,21.874 133.891,19.116 135.645,16.72 C136.027,16.744 136.409,16.767 136.792,16.79 C137.196,22.749 135.754,28.799 137.689,34.68" id="Fill-11" fill="#7D9593"></path>
                        <path d="M155.583,48.747 C154.095,50.44 152.46,51.454 150.072,50.04 C151.166,47.449 152.939,46.425 155.51,46.715 C155.534,47.392 155.558,48.07 155.583,48.747" id="Fill-12" fill="#5BA071"></path>
                        <path d="M155.636,54.492 C153.439,53.393 155.153,52.47 155.772,51.497 C156.004,51.626 156.252,51.713 156.515,51.754 C156.573,52.086 156.631,52.417 156.69,52.747 C157.27,53.891 157.387,54.756 155.636,54.492" id="Fill-13" fill="#62A06B"></path>
                        <path d="M255.294,147.842 C260.582,151.709 266.745,154.259 271.645,158.709 C275.985,161.61 278.106,167.131 283.52,168.763 C283.874,169.091 284.228,169.418 284.581,169.746 C287.89,173.616 286.007,178.659 287.559,182.925 C287.614,183.511 287.668,184.096 287.723,184.682 C289.08,188.365 291.75,191.058 294.521,193.681 C296.446,198.351 296.44,198.36 291.649,198.142 C290.821,198.105 289.992,198.106 289.16,198.095 C287.767,198.08 286.378,198.063 284.996,197.877 C269.394,194.732 253.901,196.596 238.421,198.875 C233.001,199.673 227.615,200.71 222.149,201.18 C217.987,201.398 216.417,198.983 215.704,195.254 C214.44,188.641 214.31,181.736 210.939,175.636 C210.259,173.698 208.461,172.069 209.254,169.713 C212.569,166.559 217.173,167 221.103,165.535 C225.786,163.79 230.363,162.092 232.54,157.063 C233.274,155.427 233.626,153.784 232.627,152.112 C231.476,149.913 230.246,147.767 228.722,145.8 C223.77,138.7 215.855,137.521 208.317,135.592 C203.881,134.541 199.378,135.28 194.913,135.062 C192.694,134.954 190.478,134.813 189.311,132.572 C185.356,124.981 178.27,120.299 172.511,114.389 C170.902,112.737 168.846,111.488 168.167,109.089 C168.223,106.879 170.114,106.714 171.565,106.075 C180.44,102.171 182.341,93.349 175.927,85.995 C172.199,81.721 167.093,80.5 161.876,79.469 C161.182,79.153 160.63,78.669 160.181,78.06 C159.525,77.004 159.177,75.823 158.79,74.657 C158.28,71.635 156.669,69.394 154.311,67.423 C152.44,65.86 149.872,64.449 150.562,61.22 C154.3,59.112 157.815,56.219 162.599,57.802 L162.602,57.771 C164.56,58.312 166.412,59.023 167.591,60.832 C177.632,63.03 177.211,73.794 182.851,79.614 C183.269,80.045 182.747,81.479 182.527,82.415 C182.211,83.752 182.274,84.968 183.998,84.664 C190.186,83.575 192.108,88.763 195.138,92.192 C196.882,94.166 198.186,96.528 199.688,98.716 C200.745,106.512 207.601,108.889 212.903,112.612 C215.124,114.171 217.323,115.612 218.58,118.047 C221.324,123.365 225.503,126.905 231.355,128.175 C238.339,129.69 242.247,134.776 245.828,140.248 C248.181,143.843 251.021,146.702 255.294,147.842" id="Fill-14" fill="#5E9F6B"></path>
                        <path d="M162.599,57.802 C158.609,59.104 154.618,60.406 150.628,61.708 C150.183,62 149.741,62.01 149.299,61.697 C148.197,60.247 147.639,58.672 148.197,56.843 C148.718,55.957 149.539,55.469 150.478,55.143 C151.605,54.917 152.812,55.525 153.9,54.828 C154.479,54.717 155.057,54.605 155.636,54.493 C156.546,54.247 156.556,53.46 156.69,52.747 C158.66,54.432 160.629,56.117 162.599,57.802" id="Fill-15" fill="#C3C9C8"></path>
                        <path d="M150.772,55.892 C150.043,56.194 149.314,56.496 148.584,56.798 C146.723,58.735 144.17,58.847 141.777,59.378 C138.084,60.197 134.302,60.655 130.79,62.196 C121.646,66.208 120.079,71.153 124.96,80.694 C124.578,82.96 122.68,82.998 121.114,82.965 C113.132,82.801 107.562,86.984 103.251,93.049 C100.849,96.429 98.814,96.441 96.151,93.637 C93.06,90.384 89.889,87.228 85.644,85.414 C82.991,84.28 82.575,82.206 83.572,79.685 C84.529,74.986 88.529,72.702 91.545,69.638 C93.521,69.03 94.596,67.44 95.677,65.855 C98.199,62.462 101.669,59.674 102.22,55.028 C102.316,54.212 103.296,53.156 104.115,52.825 C111.744,49.746 115.231,42.076 121.399,37.407 C123.499,35.817 125.649,34.293 127.778,32.739 C129.392,32.736 131.005,32.733 132.617,32.729 C132.635,33.388 132.653,34.047 132.671,34.706 C131.854,36.05 129.995,35.696 129.012,36.959 C131.075,38.298 132.204,36.411 133.642,35.718 C135.554,38.684 138.049,40.408 141.788,39.737 C144.417,39.265 145.619,40.515 145.983,43.123 C146.341,45.686 147.085,48.195 147.659,50.728 C147.889,52.937 149.152,54.522 150.772,55.892" id="Fill-26" fill="#83B778"></path>
                        <path d="M95.677,65.855 C95.471,68.395 94.648,70.26 91.545,69.638 C92.701,68.135 93.847,66.621 95.677,65.855" id="Fill-29" fill="#87B98D"></path>
                        <path d="M15.666,102.536 C13.866,100.848 15.151,98.642 14.692,96.729 C14.722,94.744 14.149,92.487 14.898,90.826 C16.962,86.247 18.164,81.369 19.93,76.836 C21.216,73.534 27.305,73.266 31.37,72.015 C32.494,71.669 32.589,73.277 32.628,74.246 C32.701,76.064 32.722,77.884 32.766,79.703 C32.688,81.049 32.609,82.395 32.53,83.741 C30.263,86.608 27.328,88.827 24.406,90.839 C20.067,93.825 16.706,97.23 15.666,102.536" id="Fill-30" fill="#89A7A7"></path>
                        <path d="M135.645,16.72 C135.644,20.791 135.668,24.862 135.629,28.933 C135.614,30.488 136.071,32.369 133.652,32.693 C133.649,28.625 133.626,24.557 133.651,20.489 C133.661,18.914 133.269,17.069 135.645,16.72" id="Fill-31" fill="#988F96"></path>
                        <path d="M133.642,35.718 C132.724,40.785 129.135,38.202 126.179,38.566 C127.109,34.551 129.892,34.633 132.671,34.706 C132.981,34.699 133.291,34.7 133.6,34.706 C133.614,35.043 133.628,35.381 133.642,35.718" id="Fill-49" fill="#84B777"></path>
                        <path d="M150.772,55.892 C147.602,55.456 147.544,53.144 147.659,50.728 C148.888,53.388 151.182,54.429 153.899,54.828 C153.036,55.708 151.89,55.758 150.772,55.892" id="Fill-50" fill="#62A06B"></path>
                        <path d="M148.648,83.815 C140.562,83.379 132.212,85.042 124.608,80.782 C118.463,74.883 119.381,67.059 126.747,62.709 C133.48,58.733 141.125,58.102 148.585,56.797 C148.915,58.369 149.246,59.941 149.576,61.512 C148.462,63.888 146.13,63.748 144.075,64.156 C139.393,65.085 134.524,65.516 130.447,68.289 C126.095,71.249 126.304,73.524 130.952,76.024 C137.795,77.834 144.696,77.31 151.6,76.639 C154.689,76.339 157.842,75.48 160.639,77.69 C161.004,77.979 161.37,78.268 161.735,78.558 C163.894,82.735 163.778,82.957 158.781,84.163 C155.416,83.772 151.955,85.98 148.648,83.815" id="Fill-53" fill="#EAE3D1"></path>
                        <path d="M129.556,76.922 C124.578,74.252 124.39,70.713 129.256,67.338 C133.733,64.233 139.101,63.709 144.277,62.69 C146.052,62.341 147.811,61.909 149.576,61.513 C149.927,61.577 150.277,61.643 150.628,61.708 C152.285,63.488 153.685,65.66 155.659,66.955 C158.614,68.893 159.858,71.337 159.669,74.712 C158.133,76.404 156.054,76.079 154.123,76.112 C149.348,76.195 144.571,76.166 139.794,76.131 C136.071,76.104 132.1,76.392 132.483,70.843 C128.166,71.765 132.581,75.818 129.556,76.922" id="Fill-54" fill="#84B777"></path>
                        <path d="M129.556,76.922 C131.485,74.546 126.448,74.593 127.969,72.166 C129.633,69.51 131.442,67.719 134.806,69.192 C133.061,74.617 133.123,74.707 139.185,74.717 C146.013,74.728 152.841,74.715 159.669,74.713 C160.76,75.455 160.64,76.592 160.639,77.69 C152.928,77.66 145.302,79.342 137.559,78.799 C134.771,78.603 131.983,78.579 129.556,76.922" id="Fill-56" fill="#83B877"></path>
                    </g>
                </g>
            </g>
            <g id="Imported-Layers" transform="translate(24.000000, 102.000000)">
                <path d="M3.67711051,70.9429364 C2.32965516,69.6761974 1.09353438,68.3114402 0,66.8208977 C2.56962443,64.4865105 5.15347959,62.1673951 7.70608294,59.8146815 C16.9658274,51.2807147 26.2118992,42.731476 35.4696904,34.1952878 C41.5961617,28.5466093 47.7296088,22.9054279 53.8675204,17.2692446 C60.1078376,11.5394859 66.3573629,5.81972336 72.6029817,0.0957957478 C72.7804473,0.0472031733 73.0134407,-0.0616441937 73.1367738,0.045814814 C74.5919363,1.31505286 76.2736744,2.38686622 77,4.31252053 C75.5855765,6.02325683 73.8725865,7.44854646 72.2257277,8.9102111 C70.5997963,10.3529941 69.0120927,11.8454803 67.4199245,13.3171411 C63.0022576,17.4008611 58.570081,21.4704198 54.1596691,25.5621922 C49.2079311,30.156273 44.2162912,34.7081478 39.2628791,39.3011179 C35.7015677,42.6031916 32.1025867,45.8655582 28.5281607,49.1545813 C23.5239643,53.7600467 18.5005146,58.3446867 13.5088747,62.9643133 C11.0980207,65.1954067 8.64949701,67.3865153 6.25119948,69.6326029 C5.54803372,70.2912406 4.90988288,71.2433774 3.67711051,70.9429364" id="Fill-4" fill="#AAC0C8"></path>
                <path d="M82,8.85177224 C74.5081555,16.7938972 67.0126768,24.7323689 59.5250257,32.678147 C47.8138295,45.106159 36.1059879,57.5372622 24.4009419,69.9714566 C20.9475759,73.6401439 17.509306,77.3234442 14.0640472,81 C10.4320444,78.1150713 7.08491002,74.9263624 4,71.4586028 C6.21381083,69.8834981 8.03680115,67.861575 10.0278052,66.0377695 C15.8040091,60.7473285 21.4658743,55.3309915 27.1920376,49.984628 C31.9288492,45.5622509 36.6969711,41.1744391 41.4438467,36.7630217 C47.7618319,30.8911549 54.0708712,25.0094524 60.3868995,19.1356185 C65.2690807,14.5952139 70.1526596,10.0567765 75.0446252,5.52761274 C75.6909606,4.92932585 76.3406508,4.31726909 77.1910628,4 C78.7937623,5.61725741 80.3970209,7.23451482 82,8.85177224" id="Fill-8" fill="#B9CACF" opacity="0.644927536"></path>
            </g>
        </g>
        <g id="Group-7" transform="translate(157.247998, 64.247998) rotate(-315.000000) translate(-157.247998, -64.247998) translate(91.747998, -24.752002)">
            <g id="Group-4" transform="translate(30.799554, 0.000000)">
                <mask id="mask-4" fill="white">
                    <use xlink:href="#path-3"></use>
                </mask>
                <use id="Oval-7" fill="#B81064" xlink:href="#path-3"></use>
                <path d="M11.3894183,0 L58.8453281,0 L58.8453281,23.6472867 C50.9360098,18.580011 43.0266915,16.0463731 35.1173732,16.0463731 C27.2080549,16.0463731 19.2987366,18.580011 11.3894183,23.6472867 L11.3894183,0 Z" id="Rectangle-4" fill="#000000" opacity="0.2" mask="url(#mask-4)"></path>
                <path d="M34.168255,0 L75.9294556,0 L75.9294556,164.585116 L34.168255,164.585116 C46.6966152,137.154263 52.9607953,109.72341 52.9607953,82.2925579 C52.9607953,54.8617052 46.6966152,27.4308526 34.168255,0 Z" id="Rectangle-3" fill="#000000" opacity="0.2" mask="url(#mask-4)"></path>
            </g>
            <circle id="Oval" fill="#FFFFFF" cx="65.9302949" cy="66.892781" r="13.9560478"></circle>
            <path d="M65.4490519,81.8113148 C56.9439899,81.8113148 50.049275,74.9165999 50.049275,66.4115379 C50.049275,57.906476 56.9439899,51.011761 65.4490519,51.011761 C73.9541138,51.011761 80.8488288,57.906476 80.8488288,66.4115379 C80.8488288,74.9165999 73.9541138,81.8113148 65.4490519,81.8113148 Z M65.4490519,78.0780356 C71.8922806,78.0780356 77.1155495,72.8547667 77.1155495,66.4115379 C77.1155495,59.9683092 71.8922806,54.7450403 65.4490519,54.7450403 C59.0058231,54.7450403 53.7825542,59.9683092 53.7825542,66.4115379 C53.7825542,72.8547667 59.0058231,78.0780356 65.4490519,78.0780356 Z" id="Oval" fill="#930C50" fill-rule="nonzero"></path>
            <path d="M56.1947144,160.735171 L73.7416209,160.735171 C74.8461904,160.735171 75.7416209,161.630602 75.7416209,162.735171 C75.7416209,162.895597 75.7223189,163.05544 75.684131,163.211254 L73.8337715,170.761087 C73.6144905,171.655796 72.8124503,172.285004 71.8912613,172.285004 L58.045074,172.285004 C57.123885,172.285004 56.3218448,171.655796 56.1025638,170.761087 L54.2522043,163.211254 C53.9892713,162.138435 54.6458133,161.055594 55.718632,160.792661 C55.8744461,160.754474 56.0342889,160.735171 56.1947144,160.735171 Z" id="Rectangle-6" fill="#930C50" transform="translate(64.967935, 166.510088) rotate(-180.000000) translate(-64.967935, -166.510088) "></path>
            <g id="Group-6" transform="translate(101.153420, 148.306036) rotate(-3.000000) translate(-101.153420, -148.306036) translate(73.153420, 120.306036)">
                <mask id="mask-6" fill="white">
                    <use xlink:href="#path-5"></use>
                </mask>
                <use id="Fill-3" fill="#B81064" xlink:href="#path-5"></use>
                <path d="M21.5717804,-2.52815221 L36.7105441,-2.52815221 L36.7105441,57.08073 L29.1411622,58.0269028 C28.6365368,47.4613072 28.384224,37.2111026 28.384224,27.2762889 C28.384224,17.3414752 26.1134095,7.4066615 21.5717804,-2.52815221 Z" id="Rectangle-3" fill="#000000" opacity="0.2" mask="url(#mask-6)"></path>
            </g>
            <g id="Group-6" transform="translate(29.744683, 148.306036) scale(-1, 1) rotate(-3.000000) translate(-29.744683, -148.306036) translate(1.744683, 120.306036)">
                <mask id="mask-8" fill="white">
                    <use xlink:href="#path-7"></use>
                </mask>
                <use id="Fill-3" fill="#930C50" transform="translate(27.765374, 27.765374) scale(-1, 1) rotate(-45.000000) translate(-27.765374, -27.765374) " xlink:href="#path-7"></use>
            </g>
        </g>
    </g>
</svg>