<?xml version="1.0" encoding="UTF-8"?>
<svg width="220px" height="220px" viewBox="0 0 220 220" version="1.1" xmlns="http://www.w3.org/2000/svg" xmlns:xlink="http://www.w3.org/1999/xlink">
    <!-- Generator: Sketch 62 (91390) - https://sketch.com -->
    <title>Group 2</title>
    <desc>Created with Sketch.</desc>
    <defs>
        <path d="M110,0 C132.742825,0 152.545989,4.64128056 168.842285,13.3566352 C185.138581,22.0719898 197.92801,34.8614185 206.643365,51.1577148 C215.358719,67.4540111 220,87.257175 220,110 C220,132.742825 215.358719,152.545989 206.643365,168.842285 C197.92801,185.138581 185.138581,197.92801 168.842285,206.643365 C152.545989,215.358719 132.742825,220 110,220 C87.257175,220 67.4540111,215.358719 51.1577148,206.643365 C34.8614185,197.92801 22.0719898,185.138581 13.3566352,168.842285 C4.64128056,152.545989 0,132.742825 0,110 C0,87.257175 4.64128056,67.4540111 13.3566352,51.1577148 C22.0719898,34.8614185 34.8614185,22.0719898 51.1577148,13.3566352 C67.4540111,4.64128056 87.257175,0 110,0 Z" id="path-1"></path>
        <linearGradient x1="50%" y1="100%" x2="50%" y2="3.061617e-15%" id="linearGradient-3">
            <stop stop-color="#000000" stop-opacity="0" offset="0%"></stop>
            <stop stop-color="#000000" offset="100%"></stop>
        </linearGradient>
        <polygon id="path-4" points="8.52651283e-14 0.811273527 87.3151751 0.811273527 87.3151751 51.3171101 8.52651283e-14 51.3171101"></polygon>
        <path d="M2.56809339,0 L64.4319066,0 C65.8502254,-2.60540939e-16 67,1.14977457 67,2.56809339 C67,3.9864122 65.8502254,5.13618677 64.4319066,5.13618677 L2.56809339,5.13618677 C1.14977457,5.13618677 1.73693959e-16,3.9864122 0,2.56809339 C-1.73693959e-16,1.14977457 1.14977457,2.60540939e-16 2.56809339,0 Z" id="path-6"></path>
        <circle id="path-8" cx="10.5" cy="10.5" r="10.5"></circle>
    </defs>
    <g id="Page-1" stroke="none" stroke-width="1" fill="none" fill-rule="evenodd">
        <g id="icn_step3" transform="translate(-18.000000, -18.000000)">
            <g id="Group-2" transform="translate(18.000000, 18.000000)">
                <mask id="mask-2" fill="white">
                    <use xlink:href="#path-1"></use>
                </mask>
                <use id="mask" fill="#F1F1F1" xlink:href="#path-1"></use>
                <g id="Group-3" mask="url(#mask-2)">
                    <g transform="translate(-139.000000, 77.000000)" id="Group-5">
                        <g>
                            <polygon id="Rectangle" fill="url(#linearGradient-3)" opacity="0.06" points="210.315928 1 327.958005 189.266677 117.642077 320.686655 0 132.419978"></polygon>
                            <path d="M298,134.25 L298,114.75 C298,114.75 304.625,121.752832 309.5,129.651487 L298,134.25 Z" id="Fill-1" fill="#E3B89C"></path>
                            <path d="M178.639762,144.528259 C187,136.4375 201,124.5 201,124.5 L201,137.375 C196.612887,137.836459 178.100238,145.050393 178.639762,144.528259 Z" id="Fill-11" fill="#E3B89C"></path>
                            <path d="M194.861165,64.9011216 C200.82661,54.4919063 214.530995,64.3276141 227.49905,72.5611592 C230.030784,74.1697778 235.338447,81.6754096 235.338447,81.6754096 L224.585258,100.13256 C224.585258,100.13256 187.522451,77.7049729 194.861165,64.9011216" id="Fill-15" fill="#E3B89C"></path>
                            <path d="M215,0 L284,0 C291.731986,0 298,6.2680135 298,14 L298,129.651487 L293.09987,126.75 L205.625,136.4375 L201,134.75 L201,14 C201,6.2680135 207.268014,0 215,0 Z" id="Rectangle" fill="#444444"></path>
                            <polygon id="Rectangle-5" fill="#FFFFFF" points="206 22 293 22 293 146 206 146"></polygon>
                        </g>
                    </g>
                </g>
                <g id="Group-4" mask="url(#mask-2)">
                    <g transform="translate(66.500561, 97.371189)" id="Group-16">
                        <g transform="translate(0.284135, 0.019262)">
                            <mask id="mask-5" fill="white">
                                <use xlink:href="#path-4"></use>
                            </mask>
                            <use id="Rectangle-16" fill="#85C3D4" xlink:href="#path-4"></use>
                            <circle id="Oval-3" fill="#FFFFFF" opacity="0.3" mask="url(#mask-5)" cx="70.2153048" cy="18.6095491" r="6"></circle>
                            <path d="M45.0455337,22 L64.809,53.463 L76.4751507,34.8907827 L91,58.014264 L67.668,58.014 L70.0910674,61.8723537 L20,61.8723537 L45.0455337,22 Z" id="Combined-Shape" fill="#FFFFFF" opacity="0.3" mask="url(#mask-5)"></path>
                        </g>
                    </g>
                </g>
                <g id="Group-26" mask="url(#mask-2)">
                    <g transform="translate(77.042802, 168.638132)">
                        <mask id="mask-7" fill="white">
                            <use xlink:href="#path-6"></use>
                        </mask>
                        <use id="Rectangle-17" stroke="none" fill="#CDCDCD" fill-rule="evenodd" xlink:href="#path-6"></use>
                        <rect id="Rectangle-2" stroke="none" fill="#B81064" fill-rule="evenodd" mask="url(#mask-7)" x="-2.6879487" y="-3.42412451" width="38.3104072" height="11.9844358"></rect>
                    </g>
                </g>
                <g id="Group" mask="url(#mask-2)">
                    <g transform="translate(76.000000, 138.000000)">
                        <mask id="mask-9" fill="white">
                            <use xlink:href="#path-8"></use>
                        </mask>
                        <use id="Oval" stroke="none" fill="#FFFFFF" fill-rule="evenodd" xlink:href="#path-8"></use>
                        <path d="M10.5,13.2631579 C15.0781499,13.2631579 18.7894737,16.9744817 18.7894737,21.5526316 C18.7894737,26.1307815 15.0781499,29.8421053 10.5,29.8421053 C5.9218501,29.8421053 2.21052632,26.1307815 2.21052632,21.5526316 C2.21052632,16.9744817 5.9218501,13.2631579 10.5,13.2631579 Z M10.5,4.42105263 C12.63647,4.42105263 14.3684211,6.15300373 14.3684211,8.28947368 C14.3684211,10.4259436 12.63647,12.1578947 10.5,12.1578947 C8.36353005,12.1578947 6.63157895,10.4259436 6.63157895,8.28947368 C6.63157895,6.15300373 8.36353005,4.42105263 10.5,4.42105263 Z" id="Combined-Shape" stroke="none" fill="#CDCDCD" fill-rule="evenodd" mask="url(#mask-9)"></path>
                    </g>
                </g>
                <path d="M91.8446108,204.676823 C92.1520532,204.676823 92.4012846,205.56091 92.4012846,206.651487 C92.4012846,207.742063 92.1520532,208.62615 91.8446108,208.62615 L91.8446108,208.62615 L78.1805639,208.62615 C77.8731214,208.62615 77.62389,207.742063 77.62389,206.651487 C77.62389,205.56091 77.8731214,204.676823 78.1805639,204.676823 L78.1805639,204.676823 Z M104.079362,194.803505 C104.386805,194.803505 104.636036,195.687592 104.636036,196.778168 C104.636036,197.868745 104.386805,198.752832 104.079362,198.752832 L104.079362,198.752832 L78.1805639,198.752832 C77.8731214,198.752832 77.62389,197.868745 77.62389,196.778168 C77.62389,195.687592 77.8731214,194.803505 78.1805639,194.803505 L78.1805639,194.803505 Z M104.079362,184.930186 C104.386805,184.930186 104.636036,185.814273 104.636036,186.90485 C104.636036,187.995427 104.386805,188.879514 104.079362,188.879514 L104.079362,188.879514 L78.1805639,188.879514 C77.8731214,188.879514 77.62389,187.995427 77.62389,186.90485 C77.62389,185.814273 77.8731214,184.930186 78.1805639,184.930186 L78.1805639,184.930186 Z" id="Combined-Shape" fill="#CDCDCD" fill-rule="nonzero" mask="url(#mask-2)"></path>
                <path d="M127.921057,217.186811 C131.609263,220.445956 145.159945,230.543682 151.938226,233.838713 C151.938226,233.838713 173.518181,213.59911 163.757812,208.62615 C149.805666,201.517457 127.015041,187.027533 127.015041,187.027533 C127.015041,187.027533 107.926705,177.042819 114.831133,200.046975 C116.385525,205.22465 125.18056,214.764814 127.921057,217.186811 Z" id="Fill-23" fill="#FCCFB2" mask="url(#mask-2)"></path>
            </g>
        </g>
    </g>
</svg>